<svg width="15" height="15" viewBox="0 0 15 15" fill="none" xmlns="http://www.w3.org/2000/svg">
<g clip-path="url(#clip0_9_551)">
<path d="M7.04736 14.2492C7.04736 14.2492 12.2974 10.7492 12.2974 6.66589C12.2974 5.27351 11.7442 3.93815 10.7597 2.95358C9.77511 1.96902 8.43975 1.41589 7.04736 1.41589C5.65498 1.41589 4.31962 1.96902 3.33505 2.95358C2.35049 3.93815 1.79736 5.27351 1.79736 6.66589C1.79736 10.7492 7.04736 14.2492 7.04736 14.2492Z" stroke="white" stroke-width="1.1" stroke-linecap="round" stroke-linejoin="round"/>
<path d="M7.04736 8.41589C8.01386 8.41589 8.79736 7.63239 8.79736 6.66589C8.79736 5.6994 8.01386 4.91589 7.04736 4.91589C6.08086 4.91589 5.29736 5.6994 5.29736 6.66589C5.29736 7.63239 6.08086 8.41589 7.04736 8.41589Z" stroke="white" stroke-width="1.1" stroke-linecap="round" stroke-linejoin="round"/>
</g>
<defs>
<clipPath id="clip0_9_551">
<rect width="14" height="14" fill="white" transform="translate(0.0473633 0.83252)"/>
</clipPath>
</defs>
</svg>
