<svg width="17" height="17" viewBox="0 0 17 17" fill="none" xmlns="http://www.w3.org/2000/svg">
<g clip-path="url(#clip0_9_321)">
<path d="M8.92346 16.2626C8.92346 16.2626 14.9235 12.2626 14.9235 7.59595C14.9235 6.00465 14.2913 4.47852 13.1661 3.35331C12.0409 2.22809 10.5148 1.59595 8.92346 1.59595C7.33216 1.59595 5.80604 2.22809 4.68082 3.35331C3.5556 4.47852 2.92346 6.00465 2.92346 7.59595C2.92346 12.2626 8.92346 16.2626 8.92346 16.2626Z" stroke="#3D4D5F" stroke-width="1.2" stroke-linecap="round" stroke-linejoin="round"/>
<path d="M8.92346 9.59595C10.028 9.59595 10.9235 8.70052 10.9235 7.59595C10.9235 6.49138 10.028 5.59595 8.92346 5.59595C7.81889 5.59595 6.92346 6.49138 6.92346 7.59595C6.92346 8.70052 7.81889 9.59595 8.92346 9.59595Z" stroke="#3D4D5F" stroke-width="1.2" stroke-linecap="round" stroke-linejoin="round"/>
</g>
<defs>
<clipPath id="clip0_9_321">
<rect width="16" height="16" fill="white" transform="translate(0.923462 0.929321)"/>
</clipPath>
</defs>
</svg>
