<svg width="124" height="25" viewBox="0 0 124 25" fill="none" xmlns="http://www.w3.org/2000/svg">
<path d="M49.3849 10.0464H46.7287C46.6529 9.61081 46.5133 9.22492 46.3097 8.88875C46.1061 8.54784 45.8527 8.25901 45.5497 8.02227C45.2467 7.78553 44.901 7.60797 44.5128 7.4896C44.1293 7.3665 43.715 7.30494 43.2699 7.30494C42.4792 7.30494 41.7784 7.50381 41.1676 7.90153C40.5568 8.29453 40.0786 8.87218 39.733 9.63449C39.3873 10.3921 39.2145 11.3177 39.2145 12.4115C39.2145 13.5242 39.3873 14.4617 39.733 15.224C40.0833 15.9816 40.5616 16.5545 41.1676 16.9427C41.7784 17.3262 42.4768 17.518 43.2628 17.518C43.6984 17.518 44.1056 17.4612 44.4844 17.3476C44.8679 17.2292 45.2112 17.0564 45.5142 16.8291C45.822 16.6018 46.08 16.3225 46.2884 15.991C46.5014 15.6596 46.6482 15.2808 46.7287 14.8547L49.3849 14.8689C49.2855 15.5602 49.0701 16.2088 48.7386 16.8149C48.4119 17.4209 47.9834 17.956 47.4531 18.42C46.9228 18.8793 46.3026 19.2391 45.5923 19.4995C44.8821 19.7552 44.0938 19.8831 43.2273 19.8831C41.9489 19.8831 40.8078 19.5871 39.804 18.9953C38.8002 18.4034 38.0095 17.5488 37.4318 16.4314C36.8542 15.3139 36.5653 13.974 36.5653 12.4115C36.5653 10.8442 36.8565 9.50428 37.4389 8.39159C38.0213 7.27417 38.8144 6.41953 39.8182 5.82767C40.822 5.23581 41.9583 4.93989 43.2273 4.93989C44.0369 4.93989 44.7898 5.05352 45.4858 5.28079C46.1818 5.50807 46.8021 5.84187 47.3466 6.28222C47.8911 6.71782 48.3385 7.25286 48.6889 7.88733C49.044 8.51706 49.276 9.23676 49.3849 10.0464ZM54.8235 19.9044C54.1322 19.9044 53.5096 19.7813 52.9556 19.5351C52.4064 19.2841 51.9708 18.9148 51.6488 18.4271C51.3316 17.9394 51.1729 17.3381 51.1729 16.6231C51.1729 16.0076 51.2866 15.4986 51.5138 15.0961C51.7411 14.6937 52.0513 14.3717 52.4442 14.1302C52.8372 13.8887 53.2799 13.7065 53.7724 13.5834C54.2695 13.4555 54.7833 13.3632 55.3136 13.3064C55.9528 13.2401 56.4712 13.1809 56.869 13.1288C57.2667 13.072 57.5555 12.9868 57.7354 12.8731C57.9201 12.7548 58.0124 12.5725 58.0124 12.3262V12.2836C58.0124 11.7486 57.8538 11.3343 57.5366 11.0407C57.2193 10.7472 56.7624 10.6004 56.1658 10.6004C55.5361 10.6004 55.0366 10.7377 54.6673 11.0123C54.3027 11.2869 54.0565 11.6113 53.9286 11.9853L51.5281 11.6444C51.7174 10.9816 52.0299 10.4276 52.4656 9.9825C52.9012 9.53269 53.4338 9.19651 54.0636 8.97398C54.6933 8.7467 55.3893 8.63307 56.1516 8.63307C56.6772 8.63307 57.2004 8.69462 57.7212 8.81773C58.2421 8.94083 58.7179 9.14443 59.1488 9.42852C59.5797 9.70788 59.9253 10.089 60.1857 10.572C60.4509 11.0549 60.5835 11.6586 60.5835 12.3831V19.6842H58.1119V18.1856H58.0266C57.8704 18.4887 57.6502 18.7727 57.3661 19.0379C57.0868 19.2983 56.734 19.509 56.3079 19.67C55.8865 19.8262 55.3917 19.9044 54.8235 19.9044ZM55.4911 18.0152C56.0072 18.0152 56.4547 17.9134 56.8335 17.7098C57.2122 17.5014 57.5034 17.2268 57.707 16.8859C57.9154 16.545 58.0195 16.1733 58.0195 15.7709V14.4853C57.939 14.5516 57.8017 14.6132 57.6076 14.67C57.4182 14.7268 57.2051 14.7765 56.9684 14.8191C56.7317 14.8618 56.4973 14.8996 56.2653 14.9328C56.0333 14.9659 55.832 14.9943 55.6616 15.018C55.2781 15.0701 54.9348 15.1553 54.6317 15.2737C54.3287 15.3921 54.0896 15.5578 53.9144 15.7709C53.7392 15.9792 53.6516 16.2491 53.6516 16.5805C53.6516 17.054 53.8245 17.4115 54.1701 17.653C54.5157 17.8944 54.9561 18.0152 55.4911 18.0152ZM65.7397 5.13875V19.6842H63.1687V5.13875H65.7397ZM73.2131 19.8973C72.1193 19.8973 71.1747 19.67 70.3793 19.2155C69.5885 18.7562 68.9801 18.1075 68.554 17.2694C68.1278 16.4266 67.9148 15.4347 67.9148 14.2936C67.9148 13.1714 68.1278 12.1866 68.554 11.339C68.9848 10.4868 69.5862 9.82388 70.358 9.3504C71.1297 8.87218 72.0365 8.63307 73.0781 8.63307C73.7505 8.63307 74.3849 8.74197 74.9815 8.95977C75.5829 9.17284 76.1132 9.50428 76.5724 9.95409C77.0365 10.4039 77.401 10.9768 77.6662 11.6728C77.9313 12.3641 78.0639 13.188 78.0639 14.1444V14.9328H69.1222V13.1998H75.5994C75.5947 12.7074 75.4882 12.2694 75.2798 11.8859C75.0715 11.4977 74.7803 11.1923 74.4062 10.9697C74.0369 10.7472 73.6061 10.6359 73.1136 10.6359C72.5881 10.6359 72.1264 10.7637 71.7287 11.0194C71.331 11.2704 71.0208 11.6018 70.7983 12.0137C70.5805 12.4209 70.4692 12.8684 70.4645 13.3561V14.8689C70.4645 15.5033 70.5805 16.0478 70.8125 16.5024C71.0445 16.9522 71.3688 17.2978 71.7855 17.5393C72.2022 17.7761 72.6899 17.8944 73.2486 17.8944C73.6226 17.8944 73.9612 17.8423 74.2642 17.7382C74.5672 17.6293 74.83 17.4707 75.0526 17.2623C75.2751 17.054 75.4432 16.7959 75.5568 16.4882L77.9574 16.7581C77.8059 17.3925 77.517 17.9465 77.0909 18.42C76.6695 18.8887 76.1297 19.2533 75.4716 19.5137C74.8134 19.7694 74.0606 19.8973 73.2131 19.8973ZM82.81 13.2922V19.6842H80.239V8.77511H82.6964V10.6288H82.8242C83.0752 10.018 83.4753 9.53269 84.0245 9.17284C84.5785 8.81299 85.2627 8.63307 86.0771 8.63307C86.8299 8.63307 87.4857 8.79405 88.0444 9.11602C88.6078 9.43799 89.0434 9.90437 89.3512 10.5152C89.6637 11.126 89.8176 11.867 89.8129 12.7382V19.6842H87.2418V13.1359C87.2418 12.4067 87.0524 11.8362 86.6737 11.4243C86.2996 11.0123 85.7811 10.8064 85.1183 10.8064C84.6684 10.8064 84.2683 10.9058 83.918 11.1047C83.5723 11.2988 83.3001 11.5805 83.1012 11.9498C82.9071 12.3191 82.81 12.7666 82.81 13.2922ZM96.4748 19.876C95.6178 19.876 94.8507 19.6558 94.1737 19.2155C93.4966 18.7751 92.9615 18.1359 92.5685 17.2978C92.1755 16.4598 91.979 15.4418 91.979 14.2439C91.979 13.0317 92.1779 12.009 92.5756 11.1757C92.9781 10.3376 93.5202 9.70551 94.2021 9.27937C94.8839 8.8485 95.6438 8.63307 96.4819 8.63307C97.1211 8.63307 97.6467 8.74197 98.0586 8.95977C98.4705 9.17284 98.7972 9.43089 99.0387 9.73392C99.2802 10.0322 99.4672 10.3139 99.5998 10.5791H99.7063V5.13875H102.284V19.6842H99.756V17.9655H99.5998C99.4672 18.2306 99.2755 18.5123 99.0245 18.8106C98.7736 19.1042 98.4421 19.3551 98.0302 19.5635C97.6183 19.7718 97.0998 19.876 96.4748 19.876ZM97.1921 17.7666C97.7366 17.7666 98.2006 17.6198 98.5842 17.3262C98.9677 17.028 99.2589 16.6137 99.4577 16.0834C99.6566 15.553 99.756 14.9352 99.756 14.2297C99.756 13.5242 99.6566 12.911 99.4577 12.3902C99.2636 11.8693 98.9748 11.4645 98.5913 11.1757C98.2125 10.8869 97.7461 10.7424 97.1921 10.7424C96.6192 10.7424 96.141 10.8916 95.7575 11.1899C95.3739 11.4882 95.0851 11.9001 94.891 12.4257C94.6969 12.9512 94.5998 13.5526 94.5998 14.2297C94.5998 14.9115 94.6969 15.5199 94.891 16.0549C95.0898 16.5852 95.381 17.0043 95.7646 17.312C96.1528 17.6151 96.6287 17.7666 97.1921 17.7666ZM108.163 19.9044C107.472 19.9044 106.849 19.7813 106.295 19.5351C105.746 19.2841 105.311 18.9148 104.989 18.4271C104.671 17.9394 104.513 17.3381 104.513 16.6231C104.513 16.0076 104.626 15.4986 104.854 15.0961C105.081 14.6937 105.391 14.3717 105.784 14.1302C106.177 13.8887 106.62 13.7065 107.112 13.5834C107.609 13.4555 108.123 13.3632 108.653 13.3064C109.293 13.2401 109.811 13.1809 110.209 13.1288C110.607 13.072 110.895 12.9868 111.075 12.8731C111.26 12.7548 111.352 12.5725 111.352 12.3262V12.2836C111.352 11.7486 111.194 11.3343 110.876 11.0407C110.559 10.7472 110.102 10.6004 109.506 10.6004C108.876 10.6004 108.376 10.7377 108.007 11.0123C107.643 11.2869 107.396 11.6113 107.268 11.9853L104.868 11.6444C105.057 10.9816 105.37 10.4276 105.805 9.9825C106.241 9.53269 106.774 9.19651 107.403 8.97398C108.033 8.7467 108.729 8.63307 109.491 8.63307C110.017 8.63307 110.54 8.69462 111.061 8.81773C111.582 8.94083 112.058 9.14443 112.489 9.42852C112.92 9.70788 113.265 10.089 113.526 10.572C113.791 11.0549 113.923 11.6586 113.923 12.3831V19.6842H111.452V18.1856H111.366C111.21 18.4887 110.99 18.7727 110.706 19.0379C110.427 19.2983 110.074 19.509 109.648 19.67C109.226 19.8262 108.732 19.9044 108.163 19.9044ZM108.831 18.0152C109.347 18.0152 109.795 17.9134 110.173 17.7098C110.552 17.5014 110.843 17.2268 111.047 16.8859C111.255 16.545 111.359 16.1733 111.359 15.7709V14.4853C111.279 14.5516 111.142 14.6132 110.947 14.67C110.758 14.7268 110.545 14.7765 110.308 14.8191C110.071 14.8618 109.837 14.8996 109.605 14.9328C109.373 14.9659 109.172 14.9943 109.001 15.018C108.618 15.0701 108.275 15.1553 107.972 15.2737C107.669 15.3921 107.429 15.5578 107.254 15.7709C107.079 15.9792 106.991 16.2491 106.991 16.5805C106.991 17.054 107.164 17.4115 107.51 17.653C107.856 17.8944 108.296 18.0152 108.831 18.0152ZM116.509 19.6842V8.77511H119.001V10.5933H119.115C119.314 9.96356 119.655 9.47824 120.138 9.13733C120.625 8.79168 121.182 8.61886 121.807 8.61886C121.949 8.61886 122.107 8.62596 122.283 8.64017C122.463 8.64964 122.612 8.66621 122.73 8.68989V11.0549C122.621 11.0171 122.448 10.9839 122.212 10.9555C121.98 10.9224 121.755 10.9058 121.537 10.9058C121.068 10.9058 120.647 11.0076 120.273 11.2112C119.903 11.4101 119.612 11.687 119.399 12.0422C119.186 12.3973 119.08 12.8068 119.08 13.2709V19.6842H116.509Z" fill="#404040"/>
<path d="M19.5 4.6842H5.5C4.39543 4.6842 3.5 5.57963 3.5 6.6842V20.6842C3.5 21.7888 4.39543 22.6842 5.5 22.6842H19.5C20.6046 22.6842 21.5 21.7888 21.5 20.6842V6.6842C21.5 5.57963 20.6046 4.6842 19.5 4.6842Z" stroke="#404040" stroke-width="2" stroke-linecap="round" stroke-linejoin="round"/>
<path d="M16.5 2.6842V6.6842" stroke="#404040" stroke-width="2" stroke-linecap="round" stroke-linejoin="round"/>
<path d="M8.5 2.6842V6.6842" stroke="#404040" stroke-width="2" stroke-linecap="round" stroke-linejoin="round"/>
<path d="M3.5 10.6842H21.5" stroke="#404040" stroke-width="2" stroke-linecap="round" stroke-linejoin="round"/>
</svg>
