<svg width="104" height="25" viewBox="0 0 104 25" fill="none" xmlns="http://www.w3.org/2000/svg">
<path d="M39.0696 4.81673V19.3622H36.4347V4.81673H39.0696ZM41.8093 19.3622V8.45309H44.2667V10.3068H44.3945C44.6218 9.68178 44.9982 9.1941 45.5238 8.84372C46.0494 8.4886 46.6767 8.31105 47.4059 8.31105C48.1445 8.31105 48.7672 8.49097 49.2738 8.85082C49.7852 9.20593 50.145 9.69125 50.3533 10.3068H50.467C50.7085 9.70072 51.1156 9.21777 51.6886 8.85792C52.2662 8.49334 52.9504 8.31105 53.7411 8.31105C54.7449 8.31105 55.564 8.62828 56.1985 9.26275C56.833 9.89722 57.1502 10.8229 57.1502 12.0397V19.3622H54.5721V12.4375C54.5721 11.7604 54.3922 11.2656 54.0323 10.9531C53.6725 10.6359 53.2321 10.4772 52.7113 10.4772C52.091 10.4772 51.6057 10.6714 51.2553 11.0596C50.9097 11.4431 50.7369 11.9427 50.7369 12.5582V19.3622H48.2156V12.3309C48.2156 11.7675 48.0451 11.3177 47.7042 10.9815C47.368 10.6453 46.9277 10.4772 46.3832 10.4772C46.0138 10.4772 45.6777 10.5719 45.3746 10.7613C45.0716 10.946 44.8301 11.2088 44.6502 11.5497C44.4703 11.8859 44.3803 12.2788 44.3803 12.7287V19.3622H41.8093ZM59.7585 23.4531V8.45309H62.2869V10.2571H62.4361C62.5687 9.99192 62.7557 9.71019 62.9972 9.4119C63.2386 9.10887 63.5653 8.85082 63.9773 8.63775C64.3892 8.41995 64.9148 8.31105 65.554 8.31105C66.3968 8.31105 67.1567 8.52648 67.8338 8.95735C68.5156 9.38349 69.0554 10.0156 69.4531 10.8537C69.8556 11.687 70.0568 12.7097 70.0568 13.9218C70.0568 15.1198 69.8603 16.1378 69.4673 16.9758C69.0743 17.8139 68.5393 18.4531 67.8622 18.8934C67.1851 19.3338 66.4181 19.5539 65.5611 19.5539C64.9361 19.5539 64.4176 19.4498 64.0057 19.2414C63.5938 19.0331 63.2623 18.7822 63.0114 18.4886C62.7652 18.1903 62.5734 17.9086 62.4361 17.6434H62.3295V23.4531H59.7585ZM62.2798 13.9076C62.2798 14.6131 62.3793 15.231 62.5781 15.7613C62.7817 16.2916 63.0729 16.7059 63.4517 17.0042C63.8352 17.2978 64.2992 17.4446 64.8438 17.4446C65.4119 17.4446 65.8878 17.2931 66.2713 16.99C66.6548 16.6823 66.9437 16.2632 67.1378 15.7329C67.3366 15.1979 67.4361 14.5895 67.4361 13.9076C67.4361 13.2306 67.339 12.6292 67.1449 12.1037C66.9508 11.5781 66.6619 11.1662 66.2784 10.8679C65.8949 10.5696 65.4167 10.4204 64.8438 10.4204C64.2945 10.4204 63.8281 10.5648 63.4446 10.8537C63.0611 11.1425 62.7699 11.5473 62.571 12.0681C62.3769 12.589 62.2798 13.2021 62.2798 13.9076ZM72.2585 19.3622V8.45309H74.7514V10.2713H74.8651C75.0639 9.64154 75.4048 9.15622 75.8878 8.81531C76.3755 8.46966 76.9318 8.29684 77.5568 8.29684C77.6989 8.29684 77.8575 8.30394 78.0327 8.31815C78.2126 8.32762 78.3617 8.34419 78.4801 8.36786V10.7329C78.3712 10.695 78.1984 10.6619 77.9616 10.6335C77.7296 10.6003 77.5047 10.5838 77.2869 10.5838C76.8182 10.5838 76.3968 10.6856 76.0227 10.8892C75.6534 11.088 75.3622 11.365 75.1491 11.7201C74.9361 12.0753 74.8295 12.4848 74.8295 12.9488V19.3622H72.2585ZM80.1882 19.3622V8.45309H82.7592V19.3622H80.1882ZM81.4808 6.9048C81.0736 6.9048 80.7232 6.76985 80.4297 6.49997C80.1361 6.22534 79.9893 5.89627 79.9893 5.51275C79.9893 5.12449 80.1361 4.79542 80.4297 4.52553C80.7232 4.25091 81.0736 4.1136 81.4808 4.1136C81.8928 4.1136 82.2431 4.25091 82.532 4.52553C82.8255 4.79542 82.9723 5.12449 82.9723 5.51275C82.9723 5.89627 82.8255 6.22534 82.532 6.49997C82.2431 6.76985 81.8928 6.9048 81.4808 6.9048ZM87.9741 12.9701V19.3622H85.4031V8.45309H87.8604V10.3068H87.9883C88.2392 9.69599 88.6393 9.21067 89.1886 8.85082C89.7425 8.49097 90.4267 8.31105 91.2411 8.31105C91.994 8.31105 92.6497 8.47203 93.2085 8.794C93.7719 9.11597 94.2075 9.58235 94.5153 10.1931C94.8278 10.8039 94.9817 11.5449 94.9769 12.4162V19.3622H92.4059V12.8139C92.4059 12.0847 92.2165 11.5142 91.8377 11.1022C91.4637 10.6903 90.9452 10.4843 90.2823 10.4843C89.8325 10.4843 89.4324 10.5838 89.082 10.7826C88.7364 10.9768 88.4641 11.2585 88.2653 11.6278C88.0711 11.9971 87.9741 12.4446 87.9741 12.9701ZM103.038 8.45309V10.4417H96.7667V8.45309H103.038ZM98.315 5.83946H100.886V16.0809C100.886 16.4266 100.938 16.6917 101.042 16.8764C101.151 17.0563 101.293 17.1794 101.468 17.2457C101.644 17.312 101.838 17.3451 102.051 17.3451C102.212 17.3451 102.359 17.3333 102.491 17.3096C102.628 17.286 102.733 17.2646 102.804 17.2457L103.237 19.2556C103.1 19.303 102.903 19.3551 102.647 19.4119C102.396 19.4687 102.089 19.5019 101.724 19.5113C101.08 19.5303 100.5 19.4332 99.984 19.2201C99.4679 19.0023 99.0584 18.6662 98.7553 18.2116C98.457 17.7571 98.3103 17.1889 98.315 16.5071V5.83946Z" fill="#404040"/>
<path d="M4 19.8622C4 19.1991 4.26339 18.5633 4.73223 18.0944C5.20107 17.6256 5.83696 17.3622 6.5 17.3622H20" stroke="#404040" stroke-width="2" stroke-linecap="round" stroke-linejoin="round"/>
<path d="M20 2.36218H6.5C5.83696 2.36218 5.20107 2.62557 4.73223 3.09442C4.26339 3.56326 4 4.19914 4 4.86218V19.8622C4 20.5252 4.26339 21.1611 4.73223 21.6299C5.20107 22.0988 5.83696 22.3622 6.5 22.3622H20V2.36218Z" stroke="#404040" stroke-width="2" stroke-linecap="round" stroke-linejoin="round"/>
</svg>
