<svg width="157" height="47" viewBox="0 0 157 47" fill="none" xmlns="http://www.w3.org/2000/svg">
<path d="M48.6256 16.6284H51.2456V21.9684C51.5522 21.5418 51.9589 21.2151 52.4656 20.9884C52.9722 20.7618 53.5389 20.6484 54.1656 20.6484C54.9522 20.6484 55.6589 20.8218 56.2856 21.1684C56.9122 21.5151 57.3989 22.0018 57.7456 22.6284C58.0922 23.2551 58.2656 23.9684 58.2656 24.7684V31.7684H55.6456V25.3884C55.6456 24.6818 55.4389 24.1151 55.0256 23.6884C54.6256 23.2618 54.0989 23.0484 53.4456 23.0484C52.8056 23.0484 52.2789 23.2618 51.8656 23.6884C51.4522 24.1151 51.2456 24.6818 51.2456 25.3884V31.7684H48.6256V16.6284ZM65.641 32.0084C64.5477 32.0084 63.5744 31.7551 62.721 31.2484C61.881 30.7418 61.221 30.0551 60.741 29.1884C60.2744 28.3218 60.041 27.3618 60.041 26.3084C60.041 25.2418 60.2744 24.2818 60.741 23.4284C61.221 22.5618 61.8677 21.8818 62.681 21.3884C63.5077 20.8951 64.4277 20.6484 65.441 20.6484C66.5344 20.6484 67.481 20.8884 68.281 21.3684C69.081 21.8351 69.6877 22.4751 70.101 23.2884C70.5277 24.1018 70.741 24.9951 70.741 25.9684C70.741 26.4218 70.6944 26.7884 70.601 27.0684H62.761C62.841 27.8684 63.1477 28.5084 63.681 28.9884C64.2144 29.4684 64.8744 29.7084 65.661 29.7084C66.2477 29.7084 66.7477 29.5884 67.161 29.3484C67.5877 29.0951 67.9277 28.7484 68.181 28.3084L70.301 29.3484C69.9677 30.1484 69.381 30.7951 68.541 31.2884C67.701 31.7684 66.7344 32.0084 65.641 32.0084ZM67.941 25.0684C67.8744 24.4018 67.6144 23.8618 67.161 23.4484C66.7077 23.0218 66.1344 22.8084 65.441 22.8084C64.7744 22.8084 64.2077 23.0084 63.741 23.4084C63.2744 23.7951 62.9677 24.3484 62.821 25.0684H67.941ZM75.9685 32.0084C74.8219 32.0084 73.9085 31.7284 73.2285 31.1684C72.5619 30.6084 72.2285 29.8484 72.2285 28.8884C72.2285 27.9684 72.5419 27.2084 73.1685 26.6084C73.7952 26.0084 74.7352 25.6084 75.9885 25.4084L79.2285 24.8884V24.5284C79.2285 24.0484 79.0419 23.6551 78.6685 23.3484C78.3085 23.0418 77.8285 22.8884 77.2285 22.8884C76.6685 22.8884 76.1685 23.0418 75.7285 23.3484C75.3019 23.6418 74.9885 24.0351 74.7885 24.5284L72.6485 23.4884C72.9685 22.6351 73.5552 21.9484 74.4085 21.4284C75.2619 20.9084 76.2352 20.6484 77.3285 20.6484C78.2085 20.6484 78.9885 20.8151 79.6685 21.1484C80.3619 21.4684 80.8952 21.9284 81.2685 22.5284C81.6552 23.1151 81.8485 23.7818 81.8485 24.5284V31.7684H79.3685V30.6084C78.5152 31.5418 77.3819 32.0084 75.9685 32.0084ZM74.9485 28.7884C74.9485 29.1618 75.0885 29.4618 75.3685 29.6884C75.6485 29.9018 76.0085 30.0084 76.4485 30.0084C77.2619 30.0084 77.9285 29.7551 78.4485 29.2484C78.9685 28.7284 79.2285 28.0884 79.2285 27.3284V26.8884L76.4885 27.3484C75.9685 27.4551 75.5819 27.6284 75.3285 27.8684C75.0752 28.0951 74.9485 28.4018 74.9485 28.7884ZM84.2701 16.6284H86.8901V31.7684H84.2701V16.6284ZM94.2692 31.8884C93.0425 31.8884 92.0892 31.5551 91.4092 30.8884C90.7425 30.2084 90.4092 29.2551 90.4092 28.0284V23.2284H88.5292V20.8884H88.7292C89.2625 20.8884 89.6758 20.7484 89.9692 20.4684C90.2625 20.1884 90.4092 19.7818 90.4092 19.2484V18.4084H93.0292V20.8884H95.5292V23.2284H93.0292V27.8884C93.0292 29.0218 93.6425 29.5884 94.8692 29.5884C95.0825 29.5884 95.3158 29.5684 95.5692 29.5284V31.7884C95.1425 31.8551 94.7092 31.8884 94.2692 31.8884ZM97.5709 16.6284H100.191V21.9684C100.498 21.5418 100.904 21.2151 101.411 20.9884C101.918 20.7618 102.484 20.6484 103.111 20.6484C103.898 20.6484 104.604 20.8218 105.231 21.1684C105.858 21.5151 106.344 22.0018 106.691 22.6284C107.038 23.2551 107.211 23.9684 107.211 24.7684V31.7684H104.591V25.3884C104.591 24.6818 104.384 24.1151 103.971 23.6884C103.571 23.2618 103.044 23.0484 102.391 23.0484C101.751 23.0484 101.224 23.2618 100.811 23.6884C100.398 24.1151 100.191 24.6818 100.191 25.3884V31.7684H97.5709V16.6284ZM112.006 31.7684C111.58 31.7684 111.22 31.6284 110.926 31.3484C110.646 31.0551 110.506 30.6951 110.506 30.2684C110.506 29.8551 110.646 29.5084 110.926 29.2284C111.22 28.9351 111.58 28.7884 112.006 28.7884C112.42 28.7884 112.766 28.9284 113.046 29.2084C113.326 29.4884 113.466 29.8418 113.466 30.2684C113.466 30.6951 113.326 31.0551 113.046 31.3484C112.78 31.6284 112.433 31.7684 112.006 31.7684Z" fill="#009999"/>
<path d="M116.985 20.8884H119.445V22.1684C119.845 21.6884 120.338 21.3151 120.925 21.0484C121.525 20.7818 122.198 20.6484 122.945 20.6484C123.958 20.6484 124.885 20.9018 125.725 21.4084C126.565 21.9018 127.225 22.5818 127.705 23.4484C128.185 24.3151 128.425 25.2751 128.425 26.3284C128.425 27.3818 128.185 28.3418 127.705 29.2084C127.225 30.0751 126.565 30.7618 125.725 31.2684C124.898 31.7618 123.965 32.0084 122.925 32.0084C122.258 32.0084 121.638 31.9018 121.065 31.6884C120.492 31.4618 120.005 31.1418 119.605 30.7284V35.7684H116.985V20.8884ZM119.605 26.3284C119.605 26.9551 119.732 27.5218 119.985 28.0284C120.252 28.5218 120.612 28.9084 121.065 29.1884C121.532 29.4684 122.052 29.6084 122.625 29.6084C123.518 29.6084 124.252 29.3018 124.825 28.6884C125.412 28.0618 125.705 27.2751 125.705 26.3284C125.705 25.7151 125.572 25.1618 125.305 24.6684C125.038 24.1618 124.672 23.7684 124.205 23.4884C123.738 23.1951 123.212 23.0484 122.625 23.0484C122.052 23.0484 121.532 23.1884 121.065 23.4684C120.612 23.7484 120.252 24.1418 119.985 24.6484C119.732 25.1418 119.605 25.7018 119.605 26.3284ZM130.422 16.6284H133.042V31.7684H130.422V16.6284ZM139.342 32.0084C138.075 32.0084 137.075 31.6018 136.342 30.7884C135.608 29.9751 135.242 28.8951 135.242 27.5484V20.8884H137.862V27.3284C137.862 28.0084 138.062 28.5618 138.462 28.9884C138.875 29.4018 139.408 29.6084 140.062 29.6084C140.715 29.6084 141.242 29.3951 141.642 28.9684C142.055 28.5418 142.262 27.9751 142.262 27.2684V20.8884H144.882V31.7684H142.402V30.4684C142.108 30.9751 141.695 31.3618 141.162 31.6284C140.642 31.8818 140.035 32.0084 139.342 32.0084ZM151.397 31.9884C150.304 31.9884 149.337 31.7284 148.497 31.2084C147.67 30.6884 147.084 29.9751 146.737 29.0684L148.677 28.0684C148.97 28.6551 149.357 29.1151 149.837 29.4484C150.33 29.7684 150.87 29.9284 151.457 29.9284C151.964 29.9284 152.357 29.8284 152.637 29.6284C152.93 29.4151 153.077 29.1284 153.077 28.7684C153.077 28.4618 152.957 28.2084 152.717 28.0084C152.477 27.7951 152.164 27.6551 151.777 27.5884L149.997 27.2884C149.077 27.0484 148.364 26.6418 147.857 26.0684C147.364 25.4818 147.117 24.7951 147.117 24.0084C147.117 23.3551 147.29 22.7751 147.637 22.2684C147.984 21.7484 148.464 21.3484 149.077 21.0684C149.704 20.7884 150.41 20.6484 151.197 20.6484C152.197 20.6484 153.077 20.8884 153.837 21.3684C154.597 21.8351 155.15 22.4884 155.497 23.3284L153.557 24.3284C153.344 23.8618 153.017 23.4884 152.577 23.2084C152.137 22.9284 151.65 22.7884 151.117 22.7884C150.677 22.7884 150.324 22.8884 150.057 23.0884C149.804 23.2884 149.677 23.5484 149.677 23.8684C149.677 24.4551 150.117 24.8484 150.997 25.0484L152.737 25.3684C153.657 25.6218 154.37 26.0351 154.877 26.6084C155.384 27.1818 155.637 27.8618 155.637 28.6484C155.637 29.3018 155.457 29.8818 155.097 30.3884C154.75 30.8951 154.257 31.2884 153.617 31.5684C152.977 31.8484 152.237 31.9884 151.397 31.9884Z" fill="#404040"/>
<path d="M13.1782 31.3739C15.8765 34.1759 15.8765 38.7188 13.1782 41.5207L12.1253 42.614C10.0084 44.8122 6.57636 44.8122 4.45951 42.614V42.614C2.34267 40.4159 2.34267 36.852 4.45951 34.6538L10.3981 28.4871L13.1782 31.3739Z" fill="#003367"/>
<path d="M31.6769 14.3602C33.7937 16.5583 33.7937 20.1222 31.6769 22.3204L25.7383 28.4871L22.9582 25.6003C20.2599 22.7983 20.2599 18.2554 22.9582 15.4535L24.0111 14.3602C26.128 12.162 29.56 12.162 31.6769 14.3602V14.3602Z" fill="#003367"/>
<rect width="39.2498" height="11.0512" rx="5.52559" transform="matrix(-0.693661 -0.720302 0.693661 -0.720302 27.8526 46.5941)" fill="#009999"/>
<path d="M31.6855 42.614C29.5686 44.8121 26.1366 44.8121 24.0197 42.614L18.0725 36.4383L25.7382 28.4781L31.6855 34.6538C33.8023 36.8519 33.8023 40.4158 31.6855 42.614V42.614Z" fill="#003367"/>
<ellipse cx="18.0725" cy="6.41156" rx="6.10924" ry="6.34387" fill="#009999"/>
</svg>
