<svg width="113" height="25" viewBox="0 0 113 25" fill="none" xmlns="http://www.w3.org/2000/svg">
<path d="M36.9347 19.6842V5.13875H42.3892C43.5066 5.13875 44.4441 5.33288 45.2017 5.72114C45.964 6.10939 46.5393 6.6539 46.9276 7.35466C47.3205 8.05068 47.517 8.86271 47.517 9.79074C47.517 10.7235 47.3182 11.5332 46.9205 12.2197C46.5275 12.9015 45.9474 13.4295 45.1804 13.8035C44.4134 14.1728 43.4711 14.3575 42.3537 14.3575H38.4688V12.17H41.9986C42.652 12.17 43.187 12.08 43.6037 11.9001C44.0204 11.7155 44.3281 11.4479 44.527 11.0976C44.7306 10.7424 44.8324 10.3068 44.8324 9.79074C44.8324 9.27464 44.7306 8.8343 44.527 8.46972C44.3234 8.1004 44.0133 7.82104 43.5966 7.63165C43.1799 7.43752 42.6425 7.34045 41.9844 7.34045H39.5696V19.6842H36.9347ZM44.4489 13.0933L48.0497 19.6842H45.1094L41.5724 13.0933H44.4489ZM54.5021 19.8973C53.4084 19.8973 52.4638 19.67 51.6683 19.2155C50.8776 18.7562 50.2692 18.1075 49.843 17.2694C49.4169 16.4266 49.2038 15.4347 49.2038 14.2936C49.2038 13.1714 49.4169 12.1866 49.843 11.339C50.2739 10.4868 50.8752 9.82388 51.647 9.3504C52.4188 8.87218 53.3255 8.63307 54.3672 8.63307C55.0395 8.63307 55.674 8.74197 56.2706 8.95977C56.8719 9.17284 57.4022 9.50428 57.8615 9.95409C58.3255 10.4039 58.6901 10.9768 58.9553 11.6728C59.2204 12.3641 59.353 13.188 59.353 14.1444V14.9328H50.4112V13.1998H56.8885C56.8838 12.7074 56.7772 12.2694 56.5689 11.8859C56.3606 11.4977 56.0694 11.1923 55.6953 10.9697C55.326 10.7472 54.8951 10.6359 54.4027 10.6359C53.8771 10.6359 53.4155 10.7637 53.0178 11.0194C52.62 11.2704 52.3099 11.6018 52.0874 12.0137C51.8696 12.4209 51.7583 12.8684 51.7536 13.3561V14.8689C51.7536 15.5033 51.8696 16.0478 52.1016 16.5024C52.3336 16.9522 52.6579 17.2978 53.0746 17.5393C53.4912 17.7761 53.9789 17.8944 54.5376 17.8944C54.9117 17.8944 55.2502 17.8423 55.5533 17.7382C55.8563 17.6293 56.1191 17.4707 56.3416 17.2623C56.5642 17.054 56.7322 16.7959 56.8459 16.4882L59.2464 16.7581C59.0949 17.3925 58.8061 17.9465 58.38 18.42C57.9586 18.8887 57.4188 19.2533 56.7607 19.5137C56.1025 19.7694 55.3497 19.8973 54.5021 19.8973ZM61.5281 23.7751V8.77511H64.0565V10.5791H64.2056C64.3382 10.3139 64.5252 10.0322 64.7667 9.73392C65.0082 9.43089 65.3349 9.17284 65.7468 8.95977C66.1587 8.74197 66.6843 8.63307 67.3235 8.63307C68.1663 8.63307 68.9263 8.8485 69.6033 9.27937C70.2852 9.70551 70.8249 10.3376 71.2227 11.1757C71.6251 12.009 71.8263 13.0317 71.8263 14.2439C71.8263 15.4418 71.6299 16.4598 71.2369 17.2978C70.8439 18.1359 70.3088 18.7751 69.6317 19.2155C68.9547 19.6558 68.1876 19.876 67.3306 19.876C66.7056 19.876 66.1871 19.7718 65.7752 19.5635C65.3633 19.3551 65.0318 19.1042 64.7809 18.8106C64.5347 18.5123 64.3429 18.2306 64.2056 17.9655H64.0991V23.7751H61.5281ZM64.0494 14.2297C64.0494 14.9352 64.1488 15.553 64.3477 16.0834C64.5513 16.6137 64.8424 17.028 65.2212 17.3262C65.6048 17.6198 66.0688 17.7666 66.6133 17.7666C67.1815 17.7666 67.6573 17.6151 68.0408 17.312C68.4244 17.0043 68.7132 16.5852 68.9073 16.0549C69.1062 15.5199 69.2056 14.9115 69.2056 14.2297C69.2056 13.5526 69.1085 12.9512 68.9144 12.4257C68.7203 11.9001 68.4315 11.4882 68.0479 11.1899C67.6644 10.8916 67.1862 10.7424 66.6133 10.7424C66.064 10.7424 65.5977 10.8869 65.2141 11.1757C64.8306 11.4645 64.5394 11.8693 64.3406 12.3902C64.1464 12.911 64.0494 13.5242 64.0494 14.2297ZM78.7866 19.8973C77.7212 19.8973 76.7979 19.6629 76.0167 19.1941C75.2354 18.7254 74.6294 18.0696 74.1985 17.2268C73.7724 16.384 73.5593 15.3992 73.5593 14.2723C73.5593 13.1454 73.7724 12.1582 74.1985 11.3106C74.6294 10.4631 75.2354 9.80494 76.0167 9.33619C76.7979 8.86744 77.7212 8.63307 78.7866 8.63307C79.8519 8.63307 80.7752 8.86744 81.5565 9.33619C82.3377 9.80494 82.9414 10.4631 83.3675 11.3106C83.7984 12.1582 84.0138 13.1454 84.0138 14.2723C84.0138 15.3992 83.7984 16.384 83.3675 17.2268C82.9414 18.0696 82.3377 18.7254 81.5565 19.1941C80.7752 19.6629 79.8519 19.8973 78.7866 19.8973ZM78.8008 17.8376C79.3784 17.8376 79.8614 17.679 80.2496 17.3618C80.6379 17.0398 80.9267 16.6089 81.1161 16.0691C81.3103 15.5294 81.4073 14.928 81.4073 14.2652C81.4073 13.5976 81.3103 12.9939 81.1161 12.4541C80.9267 11.9096 80.6379 11.4763 80.2496 11.1544C79.8614 10.8324 79.3784 10.6714 78.8008 10.6714C78.2089 10.6714 77.7165 10.8324 77.3235 11.1544C76.9353 11.4763 76.6441 11.9096 76.4499 12.4541C76.2605 12.9939 76.1658 13.5976 76.1658 14.2652C76.1658 14.928 76.2605 15.5294 76.4499 16.0691C76.6441 16.6089 76.9353 17.0398 77.3235 17.3618C77.7165 17.679 78.2089 17.8376 78.8008 17.8376ZM86.196 19.6842V8.77511H88.6889V10.5933H88.8026C89.0014 9.96356 89.3423 9.47824 89.8253 9.13733C90.313 8.79168 90.8693 8.61886 91.4943 8.61886C91.6364 8.61886 91.795 8.62596 91.9702 8.64017C92.1501 8.64964 92.2992 8.66621 92.4176 8.68989V11.0549C92.3087 11.0171 92.1359 10.9839 91.8991 10.9555C91.6671 10.9224 91.4422 10.9058 91.2244 10.9058C90.7557 10.9058 90.3343 11.0076 89.9602 11.2112C89.5909 11.4101 89.2997 11.687 89.0866 12.0422C88.8736 12.3973 88.767 12.8068 88.767 13.2709V19.6842H86.196ZM100.159 8.77511V10.7637H93.8878V8.77511H100.159ZM95.4361 6.16148H98.0071V16.403C98.0071 16.7486 98.0592 17.0137 98.1634 17.1984C98.2723 17.3783 98.4143 17.5014 98.5895 17.5677C98.7647 17.634 98.9588 17.6672 99.1719 17.6672C99.3329 17.6672 99.4796 17.6553 99.6122 17.6316C99.7495 17.608 99.8537 17.5867 99.9247 17.5677L100.358 19.5777C100.221 19.625 100.024 19.6771 99.7685 19.7339C99.5175 19.7907 99.2098 19.8239 98.8452 19.8334C98.2012 19.8523 97.6212 19.7552 97.1051 19.5422C96.589 19.3244 96.1795 18.9882 95.8764 18.5336C95.5781 18.0791 95.4313 17.5109 95.4361 16.8291V6.16148ZM110.775 11.6586L108.431 11.9143C108.365 11.6776 108.249 11.455 108.083 11.2467C107.922 11.0384 107.705 10.8703 107.43 10.7424C107.155 10.6146 106.819 10.5507 106.422 10.5507C105.886 10.5507 105.437 10.6667 105.072 10.8987C104.712 11.1307 104.535 11.4314 104.539 11.8007C104.535 12.1179 104.651 12.376 104.887 12.5748C105.129 12.7737 105.527 12.937 106.081 13.0649L107.941 13.4626C108.974 13.6852 109.741 14.0379 110.243 14.5209C110.749 15.0038 111.005 15.6359 111.01 16.4172C111.005 17.1037 110.804 17.7098 110.406 18.2353C110.013 18.7562 109.466 19.1634 108.765 19.4569C108.065 19.7505 107.26 19.8973 106.35 19.8973C105.015 19.8973 103.94 19.6179 103.126 19.0592C102.312 18.4958 101.826 17.7121 101.67 16.7084L104.177 16.4669C104.291 16.9593 104.532 17.331 104.902 17.5819C105.271 17.8329 105.752 17.9584 106.343 17.9584C106.954 17.9584 107.444 17.8329 107.814 17.5819C108.188 17.331 108.375 17.0209 108.375 16.6515C108.375 16.339 108.254 16.081 108.012 15.8774C107.776 15.6738 107.406 15.5175 106.904 15.4086L105.044 15.018C103.997 14.8002 103.223 14.4333 102.721 13.9172C102.219 13.3963 101.971 12.7382 101.975 11.9427C101.971 11.2704 102.153 10.688 102.522 10.1956C102.896 9.69841 103.415 9.31489 104.078 9.045C104.745 8.77038 105.515 8.63307 106.386 8.63307C107.664 8.63307 108.671 8.90532 109.404 9.44983C110.143 9.99434 110.6 10.7306 110.775 11.6586Z" fill="#404040"/>
<path d="M6.5 2.6842H13.5L20.5 9.6842V20.6842C20.5 21.2146 20.2893 21.7233 19.9142 22.0984C19.5391 22.4735 19.0304 22.6842 18.5 22.6842H6.5C5.96957 22.6842 5.46086 22.4735 5.08579 22.0984C4.71071 21.7233 4.5 21.2146 4.5 20.6842V4.6842C4.5 4.15377 4.71071 3.64506 5.08579 3.26999C5.46086 2.89492 5.96957 2.6842 6.5 2.6842Z" stroke="#404040" stroke-width="2" stroke-linecap="round" stroke-linejoin="round"/>
<path d="M13.5 2.6842V9.6842H20.5" stroke="#404040" stroke-width="2" stroke-linecap="round" stroke-linejoin="round"/>
</svg>
