<svg width="51" height="51" viewBox="0 0 51 51" fill="none" xmlns="http://www.w3.org/2000/svg">
<circle cx="25.762" cy="25.8707" r="25" fill="#009999"/>
<path d="M19.8756 34.3707V16.9162H25.7733C27.137 16.9162 28.2563 17.1491 29.1313 17.615C30.0063 18.0753 30.654 18.7088 31.0745 19.5156C31.4949 20.3224 31.7051 21.24 31.7051 22.2685C31.7051 23.2969 31.4949 24.2088 31.0745 25.0042C30.654 25.7997 30.0091 26.4247 29.1398 26.8792C28.2705 27.3281 27.1597 27.5525 25.8074 27.5525H21.0347V25.6435H25.7392C26.6711 25.6435 27.4211 25.5071 27.9892 25.2344C28.5631 24.9616 28.9779 24.5753 29.2336 24.0753C29.4949 23.5696 29.6256 22.9673 29.6256 22.2685C29.6256 21.5696 29.4949 20.9588 29.2336 20.4361C28.9722 19.9133 28.5546 19.5099 27.9807 19.2258C27.4068 18.9361 26.6483 18.7912 25.7051 18.7912H21.9892V34.3707H19.8756ZM28.0915 26.5298L32.387 34.3707H29.9324L25.7051 26.5298H28.0915Z" fill="white"/>
</svg>
