<svg width="28" height="29" viewBox="0 0 28 29" fill="none" xmlns="http://www.w3.org/2000/svg">
<path d="M18.9497 4.68427C20.2625 5.99703 21 7.7775 21 9.63402C21 17.8007 24.5 20.134 24.5 20.134H3.5C3.5 20.134 7 17.8007 7 9.63402C7 7.7775 7.7375 5.99703 9.05025 4.68427C10.363 3.37152 12.1435 2.63402 14 2.63402C15.8565 2.63402 17.637 3.37152 18.9497 4.68427Z" stroke="#404040" stroke-width="2" stroke-linecap="round" stroke-linejoin="round"/>
<path d="M16.0184 24.8007C15.8132 25.1543 15.5188 25.4478 15.1646 25.6518C14.8104 25.8558 14.4088 25.9632 14 25.9632C13.5912 25.9632 13.1896 25.8558 12.8354 25.6518C12.4812 25.4478 12.1868 25.1543 11.9817 24.8007" stroke="#404040" stroke-width="2" stroke-linecap="round" stroke-linejoin="round"/>
</svg>
