<svg width="51" height="51" viewBox="0 0 51 51" fill="none" xmlns="http://www.w3.org/2000/svg">
<circle cx="25.0719" cy="25.2767" r="25" fill="#009999"/>
<path d="M29.0719 16.2767H31.0719C31.6023 16.2767 32.111 16.4874 32.4861 16.8625C32.8612 17.2376 33.0719 17.7463 33.0719 18.2767V32.2767C33.0719 32.8072 32.8612 33.3159 32.4861 33.6909C32.111 34.066 31.6023 34.2767 31.0719 34.2767H19.0719C18.5415 34.2767 18.0328 34.066 17.6577 33.6909C17.2826 33.3159 17.0719 32.8072 17.0719 32.2767V18.2767C17.0719 17.7463 17.2826 17.2376 17.6577 16.8625C18.0328 16.4874 18.5415 16.2767 19.0719 16.2767H21.0719" stroke="white" stroke-width="2" stroke-linecap="round" stroke-linejoin="round"/>
<path d="M28.0719 14.2767H22.0719C21.5196 14.2767 21.0719 14.7244 21.0719 15.2767V17.2767C21.0719 17.829 21.5196 18.2767 22.0719 18.2767H28.0719C28.6242 18.2767 29.0719 17.829 29.0719 17.2767V15.2767C29.0719 14.7244 28.6242 14.2767 28.0719 14.2767Z" stroke="white" stroke-width="2" stroke-linecap="round" stroke-linejoin="round"/>
</svg>
