<svg width="93" height="25" viewBox="0 0 93 25" fill="none" xmlns="http://www.w3.org/2000/svg">
<path d="M37.4347 19.3622V4.81673H40.0696V10.9744H46.8097V4.81673H49.4517V19.3622H46.8097V13.1832H40.0696V19.3622H37.4347ZM56.9624 19.5753C55.897 19.5753 54.9737 19.3409 54.1925 18.8721C53.4112 18.4034 52.8052 17.7476 52.3743 16.9048C51.9482 16.062 51.7351 15.0771 51.7351 13.9503C51.7351 12.8234 51.9482 11.8361 52.3743 10.9886C52.8052 10.1411 53.4112 9.48292 54.1925 9.01417C54.9737 8.54542 55.897 8.31105 56.9624 8.31105C58.0277 8.31105 58.951 8.54542 59.7322 9.01417C60.5135 9.48292 61.1172 10.1411 61.5433 10.9886C61.9742 11.8361 62.1896 12.8234 62.1896 13.9503C62.1896 15.0771 61.9742 16.062 61.5433 16.9048C61.1172 17.7476 60.5135 18.4034 59.7322 18.8721C58.951 19.3409 58.0277 19.5753 56.9624 19.5753ZM56.9766 17.5156C57.5542 17.5156 58.0372 17.357 58.4254 17.0397C58.8137 16.7178 59.1025 16.2869 59.2919 15.7471C59.486 15.2074 59.5831 14.606 59.5831 13.9431C59.5831 13.2755 59.486 12.6718 59.2919 12.1321C59.1025 11.5876 58.8137 11.1543 58.4254 10.8324C58.0372 10.5104 57.5542 10.3494 56.9766 10.3494C56.3847 10.3494 55.8923 10.5104 55.4993 10.8324C55.111 11.1543 54.8198 11.5876 54.6257 12.1321C54.4363 12.6718 54.3416 13.2755 54.3416 13.9431C54.3416 14.606 54.4363 15.2074 54.6257 15.7471C54.8198 16.2869 55.111 16.7178 55.4993 17.0397C55.8923 17.357 56.3847 17.5156 56.9766 17.5156ZM64.3718 19.3622V8.45309H66.8292V10.3068H66.957C67.1843 9.68178 67.5607 9.1941 68.0863 8.84372C68.6119 8.4886 69.2392 8.31105 69.9684 8.31105C70.707 8.31105 71.3297 8.49097 71.8363 8.85082C72.3477 9.20593 72.7075 9.69125 72.9158 10.3068H73.0295C73.271 9.70072 73.6781 9.21777 74.2511 8.85792C74.8287 8.49334 75.5129 8.31105 76.3036 8.31105C77.3074 8.31105 78.1265 8.62828 78.761 9.26275C79.3955 9.89722 79.7127 10.8229 79.7127 12.0397V19.3622H77.1346V12.4375C77.1346 11.7604 76.9547 11.2656 76.5948 10.9531C76.235 10.6359 75.7946 10.4772 75.2738 10.4772C74.6535 10.4772 74.1682 10.6714 73.8178 11.0596C73.4722 11.4431 73.2994 11.9427 73.2994 12.5582V19.3622H70.7781V12.3309C70.7781 11.7675 70.6076 11.3177 70.2667 10.9815C69.9305 10.6453 69.4902 10.4772 68.9457 10.4772C68.5763 10.4772 68.2402 10.5719 67.9371 10.7613C67.6341 10.946 67.3926 11.2088 67.2127 11.5497C67.0328 11.8859 66.9428 12.2788 66.9428 12.7287V19.3622H64.3718ZM87.1506 19.5753C86.0568 19.5753 85.1122 19.348 84.3168 18.8934C83.526 18.4342 82.9176 17.7855 82.4915 16.9474C82.0653 16.1046 81.8523 15.1127 81.8523 13.9716C81.8523 12.8494 82.0653 11.8645 82.4915 11.017C82.9223 10.1647 83.5237 9.50186 84.2955 9.02838C85.0672 8.55016 85.974 8.31105 87.0156 8.31105C87.688 8.31105 88.3224 8.41995 88.919 8.63775C89.5204 8.85082 90.0507 9.18226 90.5099 9.63207C90.974 10.0819 91.3385 10.6548 91.6037 11.3508C91.8688 12.0421 92.0014 12.866 92.0014 13.8224V14.6108H83.0597V12.8778H89.5369C89.5322 12.3854 89.4257 11.9474 89.2173 11.5639C89.009 11.1756 88.7178 10.8702 88.3438 10.6477C87.9744 10.4252 87.5436 10.3139 87.0511 10.3139C86.5256 10.3139 86.0639 10.4417 85.6662 10.6974C85.2685 10.9484 84.9583 11.2798 84.7358 11.6917C84.518 12.0989 84.4067 12.5464 84.402 13.0341V14.5468C84.402 15.1813 84.518 15.7258 84.75 16.1804C84.982 16.6302 85.3063 16.9758 85.723 17.2173C86.1397 17.454 86.6274 17.5724 87.1861 17.5724C87.5601 17.5724 87.8987 17.5203 88.2017 17.4162C88.5047 17.3073 88.7675 17.1486 88.9901 16.9403C89.2126 16.732 89.3807 16.4739 89.4943 16.1662L91.8949 16.436C91.7434 17.0705 91.4545 17.6245 91.0284 18.098C90.607 18.5667 90.0672 18.9313 89.4091 19.1917C88.7509 19.4474 87.9981 19.5753 87.1506 19.5753Z" fill="#404040"/>
<path d="M12.1326 2.36218L3.13257 9.36218V20.3622C3.13257 20.8926 3.34328 21.4013 3.71835 21.7764C4.09343 22.1515 4.60214 22.3622 5.13257 22.3622H19.1326C19.663 22.3622 20.1717 22.1515 20.5468 21.7764C20.9219 21.4013 21.1326 20.8926 21.1326 20.3622V9.36218L12.1326 2.36218Z" stroke="#404040" stroke-width="2" stroke-linecap="round" stroke-linejoin="round"/>
<path d="M9.13257 22.3622V12.3622H15.1326V22.3622" stroke="#404040" stroke-width="2" stroke-linecap="round" stroke-linejoin="round"/>
</svg>
