<svg width="93" height="27" viewBox="0 0 93 27" fill="none" xmlns="http://www.w3.org/2000/svg">
<path d="M37.2774 21.3707V6.82527H39.9124V12.9829H46.6524V6.82527H49.2945V21.3707H46.6524V15.1918H39.9124V21.3707H37.2774ZM56.8051 21.5838C55.7398 21.5838 54.8165 21.3494 54.0352 20.8807C53.254 20.4119 52.6479 19.7561 52.2171 18.9133C51.7909 18.0705 51.5779 17.0857 51.5779 15.9588C51.5779 14.8319 51.7909 13.8447 52.2171 12.9971C52.6479 12.1496 53.254 11.4915 54.0352 11.0227C54.8165 10.554 55.7398 10.3196 56.8051 10.3196C57.8705 10.3196 58.7938 10.554 59.575 11.0227C60.3563 11.4915 60.96 12.1496 61.3861 12.9971C61.817 13.8447 62.0324 14.8319 62.0324 15.9588C62.0324 17.0857 61.817 18.0705 61.3861 18.9133C60.96 19.7561 60.3563 20.4119 59.575 20.8807C58.7938 21.3494 57.8705 21.5838 56.8051 21.5838ZM56.8193 19.5241C57.397 19.5241 57.8799 19.3655 58.2682 19.0483C58.6565 18.7263 58.9453 18.2954 59.1347 17.7557C59.3288 17.2159 59.4259 16.6146 59.4259 15.9517C59.4259 15.2841 59.3288 14.6804 59.1347 14.1406C58.9453 13.5961 58.6565 13.1629 58.2682 12.8409C57.8799 12.5189 57.397 12.3579 56.8193 12.3579C56.2275 12.3579 55.7351 12.5189 55.3421 12.8409C54.9538 13.1629 54.6626 13.5961 54.4685 14.1406C54.2791 14.6804 54.1844 15.2841 54.1844 15.9517C54.1844 16.6146 54.2791 17.2159 54.4685 17.7557C54.6626 18.2954 54.9538 18.7263 55.3421 19.0483C55.7351 19.3655 56.2275 19.5241 56.8193 19.5241ZM64.2146 21.3707V10.4616H66.672V12.3153H66.7998C67.0271 11.6903 67.4035 11.2026 67.9291 10.8523C68.4546 10.4971 69.082 10.3196 69.8112 10.3196C70.5498 10.3196 71.1724 10.4995 71.6791 10.8594C72.1904 11.2145 72.5503 11.6998 72.7586 12.3153H72.8722C73.1137 11.7093 73.5209 11.2263 74.0938 10.8665C74.6715 10.5019 75.3557 10.3196 76.1464 10.3196C77.1502 10.3196 77.9693 10.6368 78.6038 11.2713C79.2383 11.9058 79.5555 12.8314 79.5555 14.0483V21.3707H76.9774V14.446C76.9774 13.7689 76.7974 13.2741 76.4376 12.9616C76.0777 12.6444 75.6374 12.4858 75.1166 12.4858C74.4963 12.4858 74.011 12.6799 73.6606 13.0682C73.315 13.4517 73.1421 13.9512 73.1421 14.5668V21.3707H70.6208V14.3395C70.6208 13.776 70.4504 13.3262 70.1095 12.99C69.7733 12.6539 69.3329 12.4858 68.7884 12.4858C68.4191 12.4858 68.0829 12.5805 67.7799 12.7699C67.4769 12.9545 67.2354 13.2173 67.0555 13.5582C66.8756 13.8944 66.7856 14.2874 66.7856 14.7372V21.3707H64.2146ZM86.9933 21.5838C85.8996 21.5838 84.955 21.3565 84.1595 20.902C83.3688 20.4427 82.7604 19.794 82.3343 18.956C81.9081 18.1132 81.695 17.1212 81.695 15.9801C81.695 14.8579 81.9081 13.8731 82.3343 13.0256C82.7651 12.1733 83.3664 11.5104 84.1382 11.0369C84.91 10.5587 85.8167 10.3196 86.8584 10.3196C87.5307 10.3196 88.1652 10.4285 88.7618 10.6463C89.3631 10.8594 89.8934 11.1908 90.3527 11.6406C90.8167 12.0904 91.1813 12.6633 91.4465 13.3594C91.7116 14.0507 91.8442 14.8745 91.8442 15.831V16.6193H82.9024V14.8864H89.3797C89.375 14.3939 89.2684 13.956 89.0601 13.5724C88.8518 13.1842 88.5606 12.8788 88.1865 12.6562C87.8172 12.4337 87.3863 12.3224 86.8939 12.3224C86.3683 12.3224 85.9067 12.4503 85.509 12.706C85.1112 12.9569 84.8011 13.2883 84.5786 13.7003C84.3608 14.1075 84.2495 14.5549 84.2448 15.0426V16.5554C84.2448 17.1899 84.3608 17.7344 84.5928 18.1889C84.8248 18.6387 85.1491 18.9844 85.5658 19.2258C85.9825 19.4626 86.4701 19.581 87.0289 19.581C87.4029 19.581 87.7414 19.5289 88.0445 19.4247C88.3475 19.3158 88.6103 19.1572 88.8328 18.9489C89.0554 18.7405 89.2235 18.4825 89.3371 18.1747L91.7377 18.4446C91.5861 19.0791 91.2973 19.633 90.8712 20.1065C90.4498 20.5753 89.91 20.9399 89.2519 21.2003C88.5937 21.456 87.8409 21.5838 86.9933 21.5838Z" fill="#009999"/>
<g clip-path="url(#clip0_80_425)">
<path d="M12.8428 2.37073L3.84277 9.37073V20.3707C3.84277 20.9012 4.05349 21.4099 4.42856 21.7849C4.80363 22.16 5.31234 22.3707 5.84277 22.3707H19.8428C20.3732 22.3707 20.8819 22.16 21.257 21.7849C21.6321 21.4099 21.8428 20.9012 21.8428 20.3707V9.37073L12.8428 2.37073Z" fill="#009999" stroke="#009999" stroke-width="2" stroke-linecap="round" stroke-linejoin="round"/>
<path d="M9.84277 14.7887V23.4901H15.8428V14.7887H9.84277Z" fill="white" stroke="white" stroke-width="2" stroke-linecap="round" stroke-linejoin="round"/>
</g>
<defs>
<clipPath id="clip0_80_425">
<rect width="24" height="24" fill="white" transform="translate(0.842773 0.370728)"/>
</clipPath>
</defs>
</svg>
