<svg width="161" height="24" viewBox="0 0 161 24" fill="none" xmlns="http://www.w3.org/2000/svg">
<path d="M12 2V6" stroke="#009999" stroke-width="2" stroke-linecap="round" stroke-linejoin="round"/>
<path d="M12 18V22" stroke="#009999" stroke-width="2" stroke-linecap="round" stroke-linejoin="round"/>
<path d="M4.92993 4.92999L7.75993 7.75999" stroke="#009999" stroke-width="2" stroke-linecap="round" stroke-linejoin="round"/>
<path d="M16.24 16.24L19.07 19.07" stroke="#009999" stroke-width="2" stroke-linecap="round" stroke-linejoin="round"/>
<path d="M2 12H6" stroke="#009999" stroke-width="2" stroke-linecap="round" stroke-linejoin="round"/>
<path d="M18 12H22" stroke="#009999" stroke-width="2" stroke-linecap="round" stroke-linejoin="round"/>
<path d="M4.92993 19.07L7.75993 16.24" stroke="#009999" stroke-width="2" stroke-linecap="round" stroke-linejoin="round"/>
<path d="M16.24 7.75999L19.07 4.92999" stroke="#009999" stroke-width="2" stroke-linecap="round" stroke-linejoin="round"/>
<path d="M36.4347 4.45455H39.6591L43.9773 14.9943H44.1477L48.4659 4.45455H51.6903V19H49.1619V9.0071H49.027L45.0071 18.9574H43.1179L39.098 8.9858H38.9631V19H36.4347V4.45455ZM57.5852 19.2202C56.8939 19.2202 56.2713 19.0971 55.7173 18.8509C55.1681 18.5999 54.7325 18.2306 54.4105 17.7429C54.0933 17.2552 53.9347 16.6539 53.9347 15.9389C53.9347 15.3234 54.0483 14.8144 54.2756 14.4119C54.5028 14.0095 54.813 13.6875 55.206 13.446C55.599 13.2045 56.0417 13.0223 56.5341 12.8991C57.0313 12.7713 57.545 12.679 58.0753 12.6222C58.7145 12.5559 59.233 12.4967 59.6307 12.4446C60.0284 12.3878 60.3172 12.3026 60.4972 12.1889C60.6818 12.0705 60.7741 11.8883 60.7741 11.642V11.5994C60.7741 11.0644 60.6155 10.6501 60.2983 10.3565C59.9811 10.063 59.5241 9.91619 58.9276 9.91619C58.2978 9.91619 57.7983 10.0535 57.429 10.3281C57.0644 10.6027 56.8182 10.9271 56.6903 11.3011L54.2898 10.9602C54.4792 10.2973 54.7917 9.74337 55.2273 9.2983C55.6629 8.84848 56.1955 8.51231 56.8253 8.28977C57.455 8.0625 58.151 7.94886 58.9134 7.94886C59.4389 7.94886 59.9621 8.01042 60.483 8.13352C61.0038 8.25663 61.4796 8.46023 61.9105 8.74432C62.3414 9.02367 62.687 9.40483 62.9474 9.88778C63.2126 10.3707 63.3452 10.9744 63.3452 11.6989V19H60.8736V17.5014H60.7884C60.6321 17.8045 60.4119 18.0885 60.1278 18.3537C59.8485 18.6141 59.4957 18.8248 59.0696 18.9858C58.6482 19.142 58.1534 19.2202 57.5852 19.2202ZM58.2528 17.331C58.7689 17.331 59.2164 17.2292 59.5952 17.0256C59.974 16.8172 60.2652 16.5426 60.4688 16.2017C60.6771 15.8608 60.7812 15.4891 60.7812 15.0866V13.8011C60.7008 13.8674 60.5634 13.929 60.3693 13.9858C60.1799 14.0426 59.9669 14.0923 59.7301 14.1349C59.4934 14.1776 59.259 14.2154 59.027 14.2486C58.795 14.2817 58.5938 14.3101 58.4233 14.3338C58.0398 14.3859 57.6965 14.4711 57.3935 14.5895C57.0904 14.7079 56.8513 14.8736 56.6761 15.0866C56.5009 15.295 56.4134 15.5649 56.4134 15.8963C56.4134 16.3698 56.5862 16.7273 56.9318 16.9688C57.2775 17.2102 57.7178 17.331 58.2528 17.331ZM65.9304 19V8.09091H68.5014V19H65.9304ZM67.223 6.54261C66.8158 6.54261 66.4654 6.40767 66.1719 6.13778C65.8783 5.86316 65.7315 5.53409 65.7315 5.15057C65.7315 4.76231 65.8783 4.43324 66.1719 4.16335C66.4654 3.88873 66.8158 3.75142 67.223 3.75142C67.6349 3.75142 67.9853 3.88873 68.2741 4.16335C68.5677 4.43324 68.7145 4.76231 68.7145 5.15057C68.7145 5.53409 68.5677 5.86316 68.2741 6.13778C67.9853 6.40767 67.6349 6.54261 67.223 6.54261ZM73.7163 12.608V19H71.1452V8.09091H73.6026V9.9446H73.7305C73.9814 9.33381 74.3815 8.84848 74.9308 8.48864C75.4847 8.12879 76.1689 7.94886 76.9833 7.94886C77.7362 7.94886 78.3919 8.10985 78.9506 8.43182C79.5141 8.75379 79.9497 9.22017 80.2575 9.83097C80.57 10.4418 80.7238 11.1828 80.7191 12.054V19H78.1481V12.4517C78.1481 11.7225 77.9587 11.152 77.5799 10.7401C77.2058 10.3281 76.6874 10.1222 76.0245 10.1222C75.5747 10.1222 75.1746 10.2216 74.8242 10.4205C74.4786 10.6146 74.2063 10.8963 74.0075 11.2656C73.8133 11.6349 73.7163 12.0824 73.7163 12.608ZM88.7802 8.09091V10.0795H82.5089V8.09091H88.7802ZM84.0572 5.47727H86.6282V15.7188C86.6282 16.0644 86.6803 16.3295 86.7844 16.5142C86.8933 16.6941 87.0354 16.8172 87.2106 16.8835C87.3858 16.9498 87.5799 16.983 87.793 16.983C87.954 16.983 88.1007 16.9711 88.2333 16.9474C88.3706 16.9238 88.4748 16.9025 88.5458 16.8835L88.979 18.8935C88.8417 18.9408 88.6452 18.9929 88.3896 19.0497C88.1386 19.1065 87.8308 19.1397 87.4663 19.1491C86.8223 19.1681 86.2423 19.071 85.7262 18.858C85.2101 18.6402 84.8005 18.304 84.4975 17.8494C84.1992 17.3949 84.0524 16.8267 84.0572 16.1449V5.47727ZM95.6428 19.2131C94.549 19.2131 93.6044 18.9858 92.8089 18.5312C92.0182 18.072 91.4098 17.4233 90.9837 16.5852C90.5575 15.7424 90.3445 14.7505 90.3445 13.6094C90.3445 12.4872 90.5575 11.5024 90.9837 10.6548C91.4145 9.80256 92.0159 9.13968 92.7876 8.66619C93.5594 8.18797 94.4661 7.94886 95.5078 7.94886C96.1802 7.94886 96.8146 8.05777 97.4112 8.27557C98.0125 8.48864 98.5429 8.82008 99.0021 9.26989C99.4661 9.7197 99.8307 10.2926 100.096 10.9886C100.361 11.6799 100.494 12.5038 100.494 13.4602V14.2486H91.5518V12.5156H98.0291C98.0244 12.0232 97.9179 11.5852 97.7095 11.2017C97.5012 10.8134 97.21 10.508 96.8359 10.2855C96.4666 10.063 96.0357 9.9517 95.5433 9.9517C95.0178 9.9517 94.5561 10.0795 94.1584 10.3352C93.7607 10.5862 93.4505 10.9176 93.228 11.3295C93.0102 11.7367 92.8989 12.1842 92.8942 12.6719V14.1847C92.8942 14.8191 93.0102 15.3636 93.2422 15.8182C93.4742 16.268 93.7985 16.6136 94.2152 16.8551C94.6319 17.0919 95.1196 17.2102 95.6783 17.2102C96.0523 17.2102 96.3909 17.1581 96.6939 17.054C96.9969 16.9451 97.2597 16.7865 97.4822 16.5781C97.7048 16.3698 97.8729 16.1117 97.9865 15.804L100.387 16.0739C100.236 16.7083 99.9467 17.2623 99.5206 17.7358C99.0992 18.2045 98.5594 18.5691 97.9013 18.8295C97.2431 19.0852 96.4903 19.2131 95.6428 19.2131ZM105.24 12.608V19H102.669V8.09091H105.126V9.9446H105.254C105.505 9.33381 105.905 8.84848 106.454 8.48864C107.008 8.12879 107.692 7.94886 108.507 7.94886C109.26 7.94886 109.915 8.10985 110.474 8.43182C111.038 8.75379 111.473 9.22017 111.781 9.83097C112.093 10.4418 112.247 11.1828 112.243 12.054V19H109.672V12.4517C109.672 11.7225 109.482 11.152 109.103 10.7401C108.729 10.3281 108.211 10.1222 107.548 10.1222C107.098 10.1222 106.698 10.2216 106.348 10.4205C106.002 10.6146 105.73 10.8963 105.531 11.2656C105.337 11.6349 105.24 12.0824 105.24 12.608ZM117.995 19.2202C117.304 19.2202 116.681 19.0971 116.127 18.8509C115.578 18.5999 115.143 18.2306 114.821 17.7429C114.503 17.2552 114.345 16.6539 114.345 15.9389C114.345 15.3234 114.458 14.8144 114.686 14.4119C114.913 14.0095 115.223 13.6875 115.616 13.446C116.009 13.2045 116.452 13.0223 116.944 12.8991C117.441 12.7713 117.955 12.679 118.485 12.6222C119.125 12.5559 119.643 12.4967 120.041 12.4446C120.439 12.3878 120.727 12.3026 120.907 12.1889C121.092 12.0705 121.184 11.8883 121.184 11.642V11.5994C121.184 11.0644 121.026 10.6501 120.708 10.3565C120.391 10.063 119.934 9.91619 119.338 9.91619C118.708 9.91619 118.208 10.0535 117.839 10.3281C117.475 10.6027 117.228 10.9271 117.1 11.3011L114.7 10.9602C114.889 10.2973 115.202 9.74337 115.637 9.2983C116.073 8.84848 116.606 8.51231 117.235 8.28977C117.865 8.0625 118.561 7.94886 119.324 7.94886C119.849 7.94886 120.372 8.01042 120.893 8.13352C121.414 8.25663 121.89 8.46023 122.321 8.74432C122.752 9.02367 123.097 9.40483 123.358 9.88778C123.623 10.3707 123.755 10.9744 123.755 11.6989V19H121.284V17.5014H121.199C121.042 17.8045 120.822 18.0885 120.538 18.3537C120.259 18.6141 119.906 18.8248 119.48 18.9858C119.058 19.142 118.564 19.2202 117.995 19.2202ZM118.663 17.331C119.179 17.331 119.627 17.2292 120.005 17.0256C120.384 16.8172 120.675 16.5426 120.879 16.2017C121.087 15.8608 121.191 15.4891 121.191 15.0866V13.8011C121.111 13.8674 120.974 13.929 120.779 13.9858C120.59 14.0426 120.377 14.0923 120.14 14.1349C119.904 14.1776 119.669 14.2154 119.437 14.2486C119.205 14.2817 119.004 14.3101 118.833 14.3338C118.45 14.3859 118.107 14.4711 117.804 14.5895C117.501 14.7079 117.261 14.8736 117.086 15.0866C116.911 15.295 116.824 15.5649 116.824 15.8963C116.824 16.3698 116.996 16.7273 117.342 16.9688C117.688 17.2102 118.128 17.331 118.663 17.331ZM128.912 12.608V19H126.341V8.09091H128.798V9.9446H128.926C129.177 9.33381 129.577 8.84848 130.126 8.48864C130.68 8.12879 131.364 7.94886 132.179 7.94886C132.931 7.94886 133.587 8.10985 134.146 8.43182C134.709 8.75379 135.145 9.22017 135.453 9.83097C135.765 10.4418 135.919 11.1828 135.914 12.054V19H133.343V12.4517C133.343 11.7225 133.154 11.152 132.775 10.7401C132.401 10.3281 131.883 10.1222 131.22 10.1222C130.77 10.1222 130.37 10.2216 130.02 10.4205C129.674 10.6146 129.402 10.8963 129.203 11.2656C129.009 11.6349 128.912 12.0824 128.912 12.608ZM143.287 19.2131C142.198 19.2131 141.262 18.974 140.481 18.4957C139.705 18.0175 139.106 17.357 138.684 16.5142C138.268 15.6667 138.059 14.6913 138.059 13.5881C138.059 12.4801 138.272 11.5024 138.699 10.6548C139.125 9.80256 139.726 9.13968 140.502 8.66619C141.284 8.18797 142.207 7.94886 143.272 7.94886C144.158 7.94886 144.941 8.11222 145.623 8.43892C146.31 8.76089 146.857 9.2178 147.264 9.80966C147.671 10.3968 147.903 11.0833 147.96 11.8693H145.502C145.403 11.3437 145.166 10.9058 144.792 10.5554C144.423 10.2003 143.928 10.0227 143.308 10.0227C142.782 10.0227 142.321 10.1648 141.923 10.4489C141.525 10.7282 141.215 11.1307 140.993 11.6562C140.775 12.1818 140.666 12.8116 140.666 13.5455C140.666 14.2888 140.775 14.928 140.993 15.4631C141.21 15.9934 141.516 16.4029 141.909 16.6918C142.306 16.9759 142.773 17.1179 143.308 17.1179C143.687 17.1179 144.025 17.0469 144.324 16.9048C144.627 16.758 144.88 16.5473 145.083 16.2727C145.287 15.9981 145.427 15.6643 145.502 15.2713H147.96C147.898 16.0431 147.671 16.7273 147.278 17.3239C146.885 17.9157 146.35 18.3797 145.673 18.7159C144.996 19.0473 144.2 19.2131 143.287 19.2131ZM154.901 19.2131C153.807 19.2131 152.862 18.9858 152.067 18.5312C151.276 18.072 150.668 17.4233 150.241 16.5852C149.815 15.7424 149.602 14.7505 149.602 13.6094C149.602 12.4872 149.815 11.5024 150.241 10.6548C150.672 9.80256 151.274 9.13968 152.045 8.66619C152.817 8.18797 153.724 7.94886 154.766 7.94886C155.438 7.94886 156.072 8.05777 156.669 8.27557C157.27 8.48864 157.801 8.82008 158.26 9.26989C158.724 9.7197 159.089 10.2926 159.354 10.9886C159.619 11.6799 159.751 12.5038 159.751 13.4602V14.2486H150.81V12.5156H157.287C157.282 12.0232 157.176 11.5852 156.967 11.2017C156.759 10.8134 156.468 10.508 156.094 10.2855C155.724 10.063 155.294 9.9517 154.801 9.9517C154.276 9.9517 153.814 10.0795 153.416 10.3352C153.018 10.5862 152.708 10.9176 152.486 11.3295C152.268 11.7367 152.157 12.1842 152.152 12.6719V14.1847C152.152 14.8191 152.268 15.3636 152.5 15.8182C152.732 16.268 153.056 16.6136 153.473 16.8551C153.89 17.0919 154.377 17.2102 154.936 17.2102C155.31 17.2102 155.649 17.1581 155.952 17.054C156.255 16.9451 156.518 16.7865 156.74 16.5781C156.963 16.3698 157.131 16.1117 157.244 15.804L159.645 16.0739C159.493 16.7083 159.205 17.2623 158.778 17.7358C158.357 18.2045 157.817 18.5691 157.159 18.8295C156.501 19.0852 155.748 19.2131 154.901 19.2131Z" fill="#009999"/>
</svg>
